<?xml version="1.0" encoding="utf-8"?>
<!-- Generator: Adobe Illustrator 23.1.1, SVG Export Plug-In . SVG Version: 6.00 Build 0)  -->
<svg version="1.1" id="Ebene_1" xmlns="http://www.w3.org/2000/svg" xmlns:xlink="http://www.w3.org/1999/xlink" x="0px" y="0px"
	 viewBox="0 0 109.1 182.3" style="enable-background:new 0 0 109.1 182.3;" xml:space="preserve">
<style type="text/css">
	.st0{fill:#FFFFFF;}
</style>
<g>
	<circle class="st0" cx="9.6" cy="9.3" r="9.1"/>
	<circle class="st0" cx="9.6" cy="29.7" r="9.1"/>
	<circle class="st0" cx="9.6" cy="50" r="9.1"/>
	<circle class="st0" cx="9.6" cy="70.4" r="9.1"/>
	<circle class="st0" cx="9.6" cy="90.8" r="9.1"/>
	<circle class="st0" cx="9.6" cy="111.1" r="9.1"/>
	<circle class="st0" cx="9.6" cy="131.5" r="9.1"/>
	<circle class="st0" cx="9.6" cy="151.8" r="9.1"/>
	<circle class="st0" cx="9.6" cy="172.2" r="9.1"/>
</g>
<g>
	<circle class="st0" cx="32" cy="29.7" r="9.1"/>
	<circle class="st0" cx="32" cy="50" r="9.1"/>
	<circle class="st0" cx="32" cy="70.4" r="9.1"/>
	<circle class="st0" cx="32" cy="90.8" r="9.1"/>
	<circle class="st0" cx="32" cy="111.1" r="9.1"/>
	<circle class="st0" cx="32" cy="131.5" r="9.1"/>
	<circle class="st0" cx="32" cy="151.8" r="9.1"/>
</g>
<g>
	<circle class="st0" cx="54.5" cy="50" r="9.1"/>
	<circle class="st0" cx="54.5" cy="70.4" r="9.1"/>
	<circle class="st0" cx="54.5" cy="90.8" r="9.1"/>
	<circle class="st0" cx="54.5" cy="111.1" r="9.1"/>
	<circle class="st0" cx="54.5" cy="131.5" r="9.1"/>
</g>
<g>
	<circle class="st0" cx="76.9" cy="70.4" r="9.1"/>
	<circle class="st0" cx="76.9" cy="90.8" r="9.1"/>
	<circle class="st0" cx="76.9" cy="111.1" r="9.1"/>
</g>
<g>
	<circle class="st0" cx="99.4" cy="90.8" r="9.1"/>
</g>
</svg>
