<?xml version="1.0" encoding="utf-8"?>
<!-- Generator: Adobe Illustrator 25.0.1, SVG Export Plug-In . SVG Version: 6.00 Build 0)  -->
<svg version="1.1" id="Ebene_2" xmlns="http://www.w3.org/2000/svg" xmlns:xlink="http://www.w3.org/1999/xlink" x="0px" y="0px"
	 viewBox="0 0 544 668" style="enable-background:new 0 0 544 668;" xml:space="preserve">
<style type="text/css">
	.st0{fill:none;stroke:#FFFFFF;stroke-width:2;stroke-miterlimit:10;}
	.st1{fill:none;stroke:#FFFFFF;stroke-miterlimit:10;}
	.st2{fill:#FFFFFF;}
	.st3{font-family:'MyriadPro-Regular';}
	.st4{font-size:22.0566px;}
	.st5{font-size:21.2527px;}
	.st6{fill:none;stroke:#FFFFFF;stroke-width:0.5;stroke-miterlimit:10;}
	.st7{fill:#EDBC31;stroke:#FFFFFF;stroke-width:2;stroke-miterlimit:10;}
</style>
<line class="st0" x1="478.2" y1="140" x2="478.2" y2="463.5"/>
<line class="st0" x1="349.5" y1="140" x2="349.5" y2="463.5"/>
<line class="st0" x1="382.8" y1="164.8" x2="382.8" y2="488.3"/>
<line class="st0" x1="255.4" y1="164.8" x2="255.4" y2="488.3"/>
<line class="st0" x1="222" y1="141" x2="222" y2="464.5"/>
<line class="st0" x1="288.7" y1="189.6" x2="288.7" y2="513.1"/>
<line class="st0" x1="126.7" y1="161.6" x2="126.7" y2="485.1"/>
<line class="st0" x1="93.2" y1="137.8" x2="93.2" y2="461.3"/>
<line class="st0" x1="159.9" y1="186.4" x2="159.9" y2="509.9"/>
<path class="st1" d="M92.2,140c1.6,0.5,78.7-8.6,78.7-8.6L222,140l77-8.6l51.2,8.6l75.7-8.6l52.3,8.6l-19.1,15l-76.3,9.9L364.8,180
	l-76.3,9.9L238,180l-76.6,9.9l-53.8-9.9l19-15.3l-52.9-9.9L92.2,140z"/>
<polyline class="st1" points="126.6,164.8 202.8,154.9 254.7,164.8 331,154.9 382.8,164.8 "/>
<line class="st1" x1="350.2" y1="140" x2="331" y2="154.9"/>
<line class="st1" x1="254.7" y1="164.8" x2="236.8" y2="180"/>
<line class="st1" x1="220.6" y1="140" x2="202.8" y2="154.9"/>
<path class="st1" d="M92.2,463.5c1.6,0.5,78.7-8.6,78.7-8.6l51.2,8.6l77-8.6l51.2,8.6l75.7-8.6l52.3,8.6l-19.1,15l-76.3,9.9
	l-17.9,15.3l-76.3,9.9l-50.6-9.9l-76.6,9.9l-53.8-9.9l19-15.3l-52.9-9.9L92.2,463.5z"/>
<polyline class="st1" points="126.6,488.3 202.8,478.4 254.7,488.3 331,478.4 382.8,488.3 "/>
<line class="st1" x1="350.2" y1="463.5" x2="331" y2="478.4"/>
<line class="st1" x1="254.7" y1="488.3" x2="236.8" y2="503.6"/>
<line class="st1" x1="220.6" y1="463.5" x2="202.8" y2="478.4"/>
<polygon class="st1" points="32.9,350.8 51.4,334.9 128.1,326.6 146.3,310.4 223,302.8 274.9,311.5 350.4,302.8 403.4,311.5 
	384.6,326.6 436.6,334.9 417.6,350.8 343.1,360.5 290.8,350.8 214.7,360.5 162.2,350.8 86.2,360.5 "/>
<line class="st1" x1="90.7" y1="301.7" x2="146.3" y2="310.4"/>
<path class="st1" d="M128.1,326.6c0,0,50.5,8.1,51.6,8.3c1.1,0.2,77-8.3,77-8.3l52.3,8.3l75.6-8.3"/>
<line class="st1" x1="274.9" y1="311.5" x2="256.7" y2="326.6"/>
<line class="st0" x1="478.4" y1="302.8" x2="518.5" y2="302.8"/>
<path class="st0" d="M403.4,311.5c2.7-0.3,74.9-8.7,74.9-8.7"/>
<line class="st0" x1="478.2" y1="463.5" x2="517.6" y2="463.5"/>
<g>
	<g>
		<line class="st1" x1="513.1" y1="309.4" x2="513.1" y2="457.1"/>
		<g>
			<polygon class="st2" points="509.4,312.3 513.1,310.7 516.8,312.3 513.1,303.5 			"/>
		</g>
		<g>
			<polygon class="st2" points="509.4,454.3 513.1,455.9 516.8,454.3 513.1,463.1 			"/>
		</g>
	</g>
</g>
<text transform="matrix(0 -1 1 0 500.4893 417.1516)" class="st2 st3 st4">335pm</text>
<text transform="matrix(0.9915 -0.1303 0.1303 0.9915 393.0446 537.621)" class="st2 st3 st5">142pm</text>
<line class="st1" x1="382.8" y1="488.6" x2="382.8" y2="528.1"/>
<line class="st1" x1="459" y1="478.4" x2="459" y2="517.9"/>
<g>
	<g>
		<line class="st1" x1="388.7" y1="515.1" x2="453.1" y2="506.2"/>
		<g>
			<polygon class="st2" points="392,518.3 389.9,514.9 390.9,511 382.8,515.9 			"/>
		</g>
		<g>
			<polygon class="st2" points="450.8,510.3 451.9,506.4 449.8,502.9 459,505.4 			"/>
		</g>
	</g>
</g>
<line class="st1" x1="309" y1="334.9" x2="290.8" y2="350.8"/>
<g>
	<polyline class="st6" points="90.9,140.9 172.6,131.7 172.6,131.7 	"/>
	<line class="st6" x1="180.7" y1="133.1" x2="87.6" y2="143.6"/>
	<polyline class="st6" points="84.3,146.3 188.8,134.4 188.9,134.4 	"/>
	<polyline class="st6" points="81,148.9 196.9,135.8 197,135.8 	"/>
	<polyline class="st6" points="77.7,151.6 205.1,137.2 205.1,137.2 	"/>
	<polyline class="st6" points="74.4,154.2 213.2,138.5 213.2,138.5 	"/>
	<polyline class="st6" points="79,156 79.1,156 221.3,139.9 221.3,139.9 	"/>
	<polyline class="st6" points="86.7,157.4 86.7,157.4 306,132.6 306,132.6 	"/>
	<polyline class="st6" points="94.3,158.8 94.3,158.8 314.2,134 314.2,134 	"/>
	<polyline class="st6" points="101.9,160.2 101.9,160.2 322.3,135.3 322.3,135.3 	"/>
	<polyline class="st6" points="109.5,161.7 109.5,161.7 330.4,136.7 330.4,136.7 	"/>
	<polyline class="st6" points="117.1,163.1 117.2,163.1 338.5,138 338.5,138 	"/>
	<polyline class="st6" points="124.7,164.5 346.6,139.4 346.6,139.4 	"/>
	<polyline class="st6" points="123.9,166.9 430.6,132.2 430.6,132.2 	"/>
	<polyline class="st6" points="120.6,169.5 438.8,133.5 438.8,133.5 	"/>
	<polyline class="st6" points="117.3,172.2 447.1,134.9 447.1,134.9 	"/>
	<line class="st6" x1="455.3" y1="136.2" x2="114" y2="174.8"/>
	<line class="st6" x1="463.5" y1="137.6" x2="110.7" y2="177.5"/>
	<line class="st6" x1="471.7" y1="138.9" x2="107.7" y2="180.1"/>
	<line class="st6" x1="477.3" y1="140.6" x2="115.4" y2="181.5"/>
	<polyline class="st6" points="123.1,182.9 123.1,182.9 473.9,143.3 473.9,143.3 	"/>
	<line class="st6" x1="470.5" y1="145.9" x2="130.8" y2="184.4"/>
	<polyline class="st6" points="138.5,185.8 138.5,185.8 467.1,148.6 	"/>
	<polyline class="st6" points="146.2,187.2 463.7,151.3 463.7,151.3 	"/>
	<polyline class="st6" points="153.9,188.6 153.9,188.6 460.3,153.9 460.3,153.9 	"/>
	<polyline class="st6" points="242.1,180.9 242.1,180.9 382.5,165 	"/>
	<polyline class="st6" points="249.5,182.3 249.5,182.3 379.4,167.6 	"/>
	<line class="st6" x1="376.3" y1="170.3" x2="256.9" y2="183.8"/>
	<polyline class="st6" points="264.3,185.2 264.3,185.2 373.2,172.9 	"/>
	<line class="st6" x1="370.1" y1="175.5" x2="271.7" y2="186.7"/>
	<polyline class="st6" points="279.1,188.1 367,178.2 367,178.2 	"/>
	<polyline class="st6" points="286.5,189.6 326.1,185.1 326.2,185.1 	"/>
</g>
<g>
	<polyline class="st6" points="144.5,312.7 227.1,303.3 227.2,303.3 	"/>
	<polyline class="st6" points="141.6,315.3 235.2,304.7 235.3,304.7 	"/>
	<line class="st6" x1="243.3" y1="306.1" x2="138.6" y2="317.9"/>
	<polyline class="st6" points="135.7,320.5 251.4,307.4 251.4,307.4 	"/>
	<polyline class="st6" points="132.7,323.1 259.5,308.8 259.5,308.8 	"/>
	<polyline class="st6" points="129.8,325.7 267.6,310.2 267.6,310.2 	"/>
	<polyline class="st6" points="49.6,337.1 352,302.9 352,302.9 	"/>
	<polyline class="st6" points="46.5,339.7 46.5,339.7 360.2,304.3 360.2,304.3 	"/>
	<polyline class="st6" points="43.5,342.4 43.5,342.4 368.4,305.6 368.4,305.6 	"/>
	<polyline class="st6" points="40.4,345 376.6,307 376.6,307 	"/>
	<polyline class="st6" points="37.4,347.6 384.8,308.3 384.8,308.3 	"/>
	<polyline class="st6" points="34.3,350.2 393,309.7 393,309.7 	"/>
	<line class="st6" x1="401.2" y1="311" x2="39.6" y2="351.9"/>
	<polyline class="st6" points="47.4,353.3 402,313.2 402,313.2 	"/>
	<line class="st6" x1="398.7" y1="315.9" x2="55.1" y2="354.7"/>
	<line class="st6" x1="395.4" y1="318.5" x2="62.9" y2="356.1"/>
	<polyline class="st6" points="70.7,357.5 70.7,357.5 392,321.2 392,321.2 	"/>
	<polyline class="st6" points="78.4,358.9 78.4,358.9 388.7,323.8 388.7,323.8 	"/>
	<polyline class="st6" points="86.2,360.3 86.2,360.3 102.1,358.5 102.3,358.5 165.7,351.4 385.4,326.5 385.4,326.5 	"/>
	<polyline class="st6" points="173.4,352.8 393.4,327.9 393.4,327.9 	"/>
	<polyline class="st6" points="181.1,354.2 401.7,329.2 401.7,329.2 	"/>
	<polyline class="st6" points="188.8,355.6 410.1,330.6 410.1,330.6 	"/>
	<polyline class="st6" points="196.5,357 418.5,331.9 418.5,331.9 	"/>
	<polyline class="st6" points="204.2,358.4 426.8,333.2 426.8,333.2 	"/>
	<polyline class="st6" points="211.9,359.8 435.2,334.6 435.2,334.6 	"/>
	<line class="st6" x1="435" y1="336.9" x2="299.1" y2="352.2"/>
	<polyline class="st6" points="306.8,353.7 306.8,353.7 431.8,339.5 	"/>
	<polyline class="st6" points="314.4,355.1 314.4,355.1 428.7,342.1 428.7,342.1 	"/>
	<polyline class="st6" points="322.1,356.5 322.1,356.5 425.5,344.8 425.5,344.8 	"/>
	<polyline class="st6" points="329.8,357.9 422.4,347.4 422.4,347.4 	"/>
	<polyline class="st6" points="337.5,359.3 419.2,350.1 419.2,350.1 	"/>
</g>
<g>
	<polyline class="st6" points="90.9,464.5 172.6,455.2 172.6,455.2 	"/>
	<line class="st6" x1="180.7" y1="456.6" x2="87.6" y2="467.1"/>
	<polyline class="st6" points="84.3,469.8 188.8,457.9 188.9,457.9 	"/>
	<polyline class="st6" points="81,472.4 196.9,459.3 197,459.3 	"/>
	<polyline class="st6" points="77.7,475.1 205.1,460.7 205.1,460.7 	"/>
	<polyline class="st6" points="74.4,477.7 213.2,462 213.2,462 	"/>
	<polyline class="st6" points="79,479.5 79.1,479.5 221.3,463.4 221.3,463.4 	"/>
	<polyline class="st6" points="86.7,480.9 86.7,480.9 306,456.1 306,456.1 	"/>
	<polyline class="st6" points="94.3,482.3 94.3,482.3 314.2,457.5 314.2,457.5 	"/>
	<polyline class="st6" points="101.9,483.8 101.9,483.8 322.3,458.8 322.3,458.8 	"/>
	<polyline class="st6" points="109.5,485.2 109.5,485.2 330.4,460.2 330.4,460.2 	"/>
	<polyline class="st6" points="117.1,486.6 117.2,486.6 338.5,461.6 338.5,461.6 	"/>
	<polyline class="st6" points="124.7,488 346.6,462.9 346.6,462.9 	"/>
	<polyline class="st6" points="123.9,490.4 430.6,455.7 430.6,455.7 	"/>
	<polyline class="st6" points="120.6,493.1 438.8,457.1 438.8,457.1 	"/>
	<polyline class="st6" points="117.3,495.7 447.1,458.4 447.1,458.4 	"/>
	<line class="st6" x1="455.3" y1="459.8" x2="114" y2="498.4"/>
	<line class="st6" x1="463.5" y1="461.1" x2="110.7" y2="501"/>
	<line class="st6" x1="471.7" y1="462.5" x2="107.7" y2="503.6"/>
	<line class="st6" x1="477.3" y1="464.1" x2="115.4" y2="505"/>
	<polyline class="st6" points="123.1,506.5 123.1,506.5 473.9,466.8 473.9,466.8 	"/>
	<line class="st6" x1="470.5" y1="469.4" x2="130.8" y2="507.9"/>
	<polyline class="st6" points="138.5,509.3 138.5,509.3 467.1,472.1 	"/>
	<polyline class="st6" points="146.2,510.7 463.7,474.8 463.7,474.8 	"/>
	<polyline class="st6" points="153.9,512.1 153.9,512.1 460.3,477.4 460.3,477.4 	"/>
	<polyline class="st6" points="242.1,504.4 242.1,504.4 382.5,488.5 	"/>
	<polyline class="st6" points="249.5,505.9 249.5,505.9 379.4,491.2 	"/>
	<line class="st6" x1="376.3" y1="493.8" x2="256.9" y2="507.3"/>
	<polyline class="st6" points="264.3,508.7 264.3,508.7 373.2,496.4 	"/>
	<line class="st6" x1="370.1" y1="499.1" x2="271.7" y2="510.2"/>
	<polyline class="st6" points="279.1,511.6 367,501.7 367,501.7 	"/>
	<polyline class="st6" points="286.5,513.1 326.1,508.6 326.2,508.6 	"/>
</g>
<circle class="st7" cx="73.6" cy="154.9" r="6.5"/>
<circle class="st7" cx="92.2" cy="140" r="6.5"/>
<circle class="st7" cx="170.8" cy="131.4" r="6.5"/>
<circle class="st7" cx="222" cy="140" r="6.5"/>
<circle class="st7" cx="202.8" cy="154.9" r="6.5"/>
<circle class="st7" cx="126.6" cy="164.8" r="6.5"/>
<circle class="st7" cx="299" cy="131.4" r="6.5"/>
<circle class="st7" cx="350.2" cy="140" r="6.5"/>
<circle class="st7" cx="331" cy="154.9" r="6.5"/>
<circle class="st7" cx="254.7" cy="164.8" r="6.5"/>
<circle class="st7" cx="427" cy="131.4" r="6.5"/>
<circle class="st7" cx="478.2" cy="140" r="6.5"/>
<circle class="st7" cx="459" cy="154.9" r="6.5"/>
<circle class="st7" cx="382.8" cy="164.8" r="6.5"/>
<circle class="st7" cx="236.8" cy="180" r="6.5"/>
<circle class="st7" cx="364.8" cy="180" r="6.5"/>
<circle class="st7" cx="288.5" cy="189.9" r="6.5"/>
<circle class="st7" cx="107.6" cy="180" r="6.5"/>
<circle class="st7" cx="161.4" cy="189.9" r="6.5"/>
<circle class="st7" cx="73.6" cy="478.4" r="6.5"/>
<circle class="st7" cx="92.2" cy="463.5" r="6.5"/>
<circle class="st7" cx="32.9" cy="350.8" r="6.5"/>
<circle class="st7" cx="51.4" cy="334.9" r="6.5"/>
<circle class="st7" cx="128.1" cy="326.6" r="6.5"/>
<circle class="st7" cx="86.2" cy="360.5" r="6.5"/>
<circle class="st7" cx="162.2" cy="350.8" r="6.5"/>
<circle class="st7" cx="179.7" cy="334.9" r="6.5"/>
<circle class="st7" cx="146.3" cy="310.4" r="6.5"/>
<circle class="st7" cx="223" cy="302.8" r="6.5"/>
<circle class="st7" cx="274.9" cy="311.5" r="6.5"/>
<circle class="st7" cx="256.7" cy="326.6" r="6.5"/>
<circle class="st7" cx="309" cy="334.9" r="6.5"/>
<circle class="st7" cx="290.8" cy="350.8" r="6.5"/>
<circle class="st7" cx="343.1" cy="360.5" r="6.5"/>
<circle class="st7" cx="417.6" cy="350.8" r="6.5"/>
<circle class="st7" cx="436.6" cy="334.9" r="6.5"/>
<circle class="st7" cx="384.6" cy="326.6" r="6.5"/>
<circle class="st7" cx="403.4" cy="311.5" r="6.5"/>
<circle class="st7" cx="350.4" cy="302.8" r="6.5"/>
<circle class="st7" cx="478.4" cy="302.8" r="6.5"/>
<circle class="st7" cx="90.7" cy="301.7" r="6.5"/>
<circle class="st7" cx="170.8" cy="454.9" r="6.5"/>
<circle class="st7" cx="222" cy="463.5" r="6.5"/>
<circle class="st7" cx="202.8" cy="478.4" r="6.5"/>
<circle class="st7" cx="126.6" cy="488.3" r="6.5"/>
<circle class="st7" cx="299" cy="454.9" r="6.5"/>
<circle class="st7" cx="350.2" cy="463.5" r="6.5"/>
<circle class="st7" cx="331" cy="478.4" r="6.5"/>
<circle class="st7" cx="254.7" cy="488.3" r="6.5"/>
<circle class="st7" cx="427" cy="454.9" r="6.5"/>
<circle class="st7" cx="478.2" cy="463.5" r="6.5"/>
<circle class="st7" cx="459" cy="478.4" r="6.5"/>
<circle class="st7" cx="382.8" cy="488.3" r="6.5"/>
<circle class="st7" cx="236.8" cy="503.6" r="6.5"/>
<circle class="st7" cx="364.8" cy="503.6" r="6.5"/>
<circle class="st7" cx="288.5" cy="513.4" r="6.5"/>
<circle class="st7" cx="107.6" cy="503.6" r="6.5"/>
<circle class="st7" cx="161.4" cy="513.4" r="6.5"/>
</svg>
