<?xml version="1.0" encoding="utf-8"?>
<!-- Generator: Adobe Illustrator 25.0.1, SVG Export Plug-In . SVG Version: 6.00 Build 0)  -->
<svg version="1.1" id="graphit" xmlns="http://www.w3.org/2000/svg" xmlns:xlink="http://www.w3.org/1999/xlink" x="0px" y="0px"
	 viewBox="0 0 544 668" style="enable-background:new 0 0 544 668;" xml:space="preserve">
<style type="text/css">
	.st0{fill:#A9A9A9;stroke:#000000;stroke-width:2;stroke-miterlimit:10;}
	.st1{fill:#FFFFFF;stroke:#000000;stroke-width:2;stroke-miterlimit:10;}
	.st2{fill:none;stroke:#000000;stroke-miterlimit:10;}
	.st3{fill:#FFFFFF;stroke:#FFFFFF;stroke-width:1.317;stroke-miterlimit:10;}
	.st4{fill:#FFFFFF;stroke:#000000;stroke-width:1.317;stroke-miterlimit:10;}
	.st5{fill:#ECBC33;}
	.st6{fill:#FFFFFF;}
	.st7{font-family:'Poppins-Medium';}
	.st8{font-size:18.816px;}
</style>
<polygon class="st0" points="16.8,304.5 46.6,248.3 144.9,278.3 198,248.3 299,280.7 349.5,249.7 449.8,278.3 502.4,248.3 
	476,304.5 529.9,276.4 503.8,330.4 401.8,303.5 345.1,333.8 246.3,301.9 195.9,333.8 94.8,303.5 40.6,331.2 68.5,277.4 "/>
<polyline class="st0" points="68.5,277.4 167,303.5 221.8,277.4 323.5,304.5 375.9,277.4 476,304.5 "/>
<g>
	<polygon class="st1" points="529.9,276.4 525.7,285 521.1,294.6 516.5,304.2 511.8,313.8 507.2,323.3 503.8,330.4 502.6,330.1 
		497.9,328.9 493.3,327.6 488.7,326.4 484,325.2 479.4,324 474.8,322.8 470.2,321.5 465.5,320.3 460.9,319.1 456.3,317.9 
		451.6,316.7 447,315.4 442.4,314.2 437.7,313 433.1,311.8 428.5,310.6 423.8,309.3 419.2,308.1 414.6,306.9 410,305.7 405.3,304.5 
		401.8,303.5 400.7,304.1 396.1,306.6 391.4,309 386.8,311.5 382.2,314 377.5,316.5 372.9,318.9 368.3,321.4 363.7,323.9 359,326.4 
		354.4,328.9 349.8,331.3 345.1,333.8 345.1,333.8 340.5,332.3 335.9,330.8 331.2,329.3 326.6,327.9 322,326.4 317.3,324.9 
		312.7,323.4 308.1,321.9 303.5,320.4 298.8,318.9 294.2,317.4 289.6,315.9 284.9,314.4 280.3,312.9 275.7,311.4 271,309.9 
		266.4,308.4 261.8,306.9 257.2,305.4 252.5,303.9 247.9,302.4 246.3,301.9 243.3,303.8 238.6,306.7 234,309.7 229.4,312.6 
		224.7,315.5 220.1,318.5 215.5,321.4 210.9,324.3 206.2,327.3 201.6,330.2 197,333.1 195.9,333.8 192.3,332.8 187.7,331.4 
		183.1,330 178.4,328.6 173.8,327.2 169.2,325.8 164.5,324.4 159.9,323 155.3,321.6 150.7,320.3 146,318.9 141.4,317.5 136.8,316.1 
		132.1,314.7 127.5,313.3 122.9,311.9 118.2,310.5 113.6,309.1 109,307.7 104.3,306.3 99.7,304.9 95.1,303.5 94.8,303.5 90.5,305.7 
		85.8,308.1 81.2,310.5 76.6,312.8 71.9,315.2 67.3,317.5 62.7,319.9 58,322.3 53.4,324.7 48.8,327 44.1,329.4 40.6,331.2 
		44.1,324.4 48.8,315.5 53.4,306.6 58,297.6 62.7,288.7 67.3,279.8 68.5,277.4 67.3,278 62.7,280.5 58,282.9 53.4,285.3 48.8,287.7 
		44.1,290.2 39.5,292.6 34.9,295 30.3,297.4 25.6,299.9 21,302.3 16.8,304.5 21,296.6 25.6,287.9 30.3,279.1 34.9,270.4 39.5,261.6 
		44.1,252.9 46.6,248.3 48.8,249 53.4,250.4 58,251.9 62.7,253.3 67.3,254.7 71.9,256.1 76.6,257.5 81.2,258.9 90.5,261.7 
		95.1,263.1 99.7,264.6 104.3,266 109,267.4 113.6,268.8 118.2,270.2 122.9,271.6 127.5,273 132.1,274.4 136.8,275.9 141.4,277.3 
		144.9,278.3 146,277.7 150.7,275.1 155.3,272.5 159.9,269.9 164.5,267.3 169.2,264.6 173.8,262 178.4,259.4 183.1,256.8 
		187.7,254.2 192.3,251.6 197,248.9 198,248.3 201.6,249.5 206.2,251 210.9,252.5 215.5,254 220.1,255.4 224.7,256.9 229.4,258.4 
		234,259.9 238.6,261.4 243.3,262.9 247.9,264.4 252.5,265.8 257.2,267.3 261.8,268.8 266.4,270.3 271,271.8 275.7,273.3 
		280.3,274.7 284.9,276.2 289.6,277.7 294.2,279.2 298.8,280.7 299,280.8 303.5,278 308.1,275.2 312.7,272.3 317.3,269.5 322,266.6 
		326.6,263.8 331.2,260.9 335.9,258.1 340.5,255.2 345.1,252.4 349.4,249.7 349.8,249.8 354.4,251.1 359,252.4 363.7,253.8 
		368.3,255.1 372.9,256.4 377.5,257.7 382.2,259.1 386.8,260.4 391.4,261.7 396.1,263 400.7,264.3 405.3,265.7 410,267 414.6,268.3 
		419.2,269.6 423.8,271 428.5,272.3 433.1,273.6 437.7,274.9 442.4,276.2 447,277.6 449.8,278.3 451.6,277.3 456.3,274.6 460.9,272 
		465.5,269.4 470.2,266.7 474.8,264.1 479.4,261.5 484,258.8 488.7,256.2 493.3,253.5 497.9,250.9 502.4,248.3 497.9,257.9 
		493.3,267.7 488.7,277.5 484,287.3 479.4,297.1 476,304.5 479.4,302.7 484,300.3 488.7,297.8 493.3,295.4 497.9,293 502.6,290.6 
		507.2,288.2 511.8,285.8 516.5,283.4 521.1,281 525.7,278.6 	"/>
	<line class="st2" x1="21" y1="302.3" x2="21" y2="296.6"/>
	<line class="st2" x1="25.6" y1="299.9" x2="25.6" y2="287.9"/>
	<line class="st2" x1="30.3" y1="297.4" x2="30.3" y2="279.1"/>
	<line class="st2" x1="34.9" y1="295" x2="34.9" y2="270.4"/>
	<line class="st2" x1="39.5" y1="292.6" x2="39.5" y2="261.6"/>
	<line class="st2" x1="44.1" y1="329.4" x2="44.1" y2="324.4"/>
	<line class="st2" x1="44.1" y1="290.2" x2="44.1" y2="252.9"/>
	<line class="st2" x1="48.8" y1="327" x2="48.8" y2="315.5"/>
	<line class="st2" x1="48.8" y1="287.7" x2="48.8" y2="249"/>
	<line class="st2" x1="53.4" y1="324.7" x2="53.4" y2="306.6"/>
	<line class="st2" x1="53.4" y1="285.3" x2="53.4" y2="250.4"/>
	<line class="st2" x1="58" y1="322.3" x2="58" y2="297.6"/>
	<line class="st2" x1="58" y1="282.9" x2="58" y2="251.9"/>
	<line class="st2" x1="62.7" y1="280.5" x2="62.7" y2="253.3"/>
	<line class="st2" x1="62.7" y1="319.9" x2="62.7" y2="288.7"/>
	<polyline class="st2" points="67.3,254.7 67.3,278 67.3,279.8 67.3,317.5 	"/>
	<line class="st2" x1="71.9" y1="315.2" x2="71.9" y2="256.1"/>
	<line class="st2" x1="76.6" y1="312.8" x2="76.6" y2="257.5"/>
	<line class="st2" x1="81.2" y1="310.5" x2="81.2" y2="258.9"/>
	<line class="st2" x1="85.8" y1="308.1" x2="85.8" y2="260.3"/>
	<line class="st2" x1="90.5" y1="305.7" x2="90.5" y2="261.7"/>
	<line class="st2" x1="95.1" y1="303.5" x2="95.1" y2="263.1"/>
	<line class="st2" x1="99.7" y1="304.9" x2="99.7" y2="264.6"/>
	<line class="st2" x1="104.3" y1="306.3" x2="104.3" y2="266"/>
	<line class="st2" x1="109" y1="307.7" x2="109" y2="267.4"/>
	<line class="st2" x1="113.6" y1="309.1" x2="113.6" y2="268.8"/>
	<line class="st2" x1="118.2" y1="310.5" x2="118.2" y2="270.2"/>
	<line class="st2" x1="122.9" y1="311.9" x2="122.9" y2="271.6"/>
	<line class="st2" x1="127.5" y1="313.3" x2="127.5" y2="273"/>
	<line class="st2" x1="132.1" y1="314.7" x2="132.1" y2="274.4"/>
	<line class="st2" x1="136.8" y1="316.1" x2="136.8" y2="275.9"/>
	<line class="st2" x1="141.4" y1="317.5" x2="141.4" y2="277.3"/>
	<line class="st2" x1="146" y1="318.9" x2="146" y2="277.7"/>
	<line class="st2" x1="150.7" y1="320.3" x2="150.7" y2="275.1"/>
	<line class="st2" x1="155.3" y1="321.6" x2="155.3" y2="272.5"/>
	<line class="st2" x1="159.9" y1="323" x2="159.9" y2="269.9"/>
	<line class="st2" x1="164.5" y1="324.4" x2="164.5" y2="267.3"/>
	<line class="st2" x1="169.2" y1="325.8" x2="169.2" y2="264.6"/>
	<line class="st2" x1="173.8" y1="327.2" x2="173.8" y2="262"/>
	<line class="st2" x1="178.4" y1="328.6" x2="178.4" y2="259.4"/>
	<line class="st2" x1="183.1" y1="330" x2="183.1" y2="256.8"/>
	<line class="st2" x1="187.7" y1="331.4" x2="187.7" y2="254.2"/>
	<line class="st2" x1="192.3" y1="332.8" x2="192.3" y2="251.6"/>
	<line class="st2" x1="197" y1="333.1" x2="197" y2="248.9"/>
	<line class="st2" x1="201.6" y1="330.2" x2="201.6" y2="249.5"/>
	<line class="st2" x1="206.2" y1="327.3" x2="206.2" y2="251"/>
	<line class="st2" x1="210.9" y1="324.3" x2="210.9" y2="252.5"/>
	<line class="st2" x1="215.5" y1="321.4" x2="215.5" y2="254"/>
	<line class="st2" x1="220.1" y1="318.5" x2="220.1" y2="255.4"/>
	<line class="st2" x1="224.7" y1="315.5" x2="224.7" y2="256.9"/>
	<line class="st2" x1="229.4" y1="312.6" x2="229.4" y2="258.4"/>
	<line class="st2" x1="234" y1="309.7" x2="234" y2="259.9"/>
	<line class="st2" x1="238.6" y1="306.7" x2="238.6" y2="261.4"/>
	<line class="st2" x1="243.3" y1="303.8" x2="243.3" y2="262.9"/>
	<line class="st2" x1="247.9" y1="302.4" x2="247.9" y2="264.4"/>
	<line class="st2" x1="252.5" y1="303.9" x2="252.5" y2="265.8"/>
	<line class="st2" x1="257.2" y1="305.4" x2="257.2" y2="267.3"/>
	<line class="st2" x1="261.8" y1="306.9" x2="261.8" y2="268.8"/>
	<line class="st2" x1="266.4" y1="308.4" x2="266.4" y2="270.3"/>
	<line class="st2" x1="271" y1="309.9" x2="271" y2="271.8"/>
	<line class="st2" x1="275.7" y1="311.4" x2="275.7" y2="273.3"/>
	<line class="st2" x1="280.3" y1="312.9" x2="280.3" y2="274.7"/>
	<line class="st2" x1="284.9" y1="314.4" x2="284.9" y2="276.2"/>
	<line class="st2" x1="289.6" y1="315.9" x2="289.6" y2="277.7"/>
	<line class="st2" x1="294.2" y1="317.4" x2="294.2" y2="279.2"/>
	<line class="st2" x1="298.8" y1="318.9" x2="298.8" y2="280.7"/>
	<line class="st2" x1="303.5" y1="320.4" x2="303.5" y2="278"/>
	<line class="st2" x1="308.1" y1="321.9" x2="308.1" y2="275.2"/>
	<line class="st2" x1="312.7" y1="323.4" x2="312.7" y2="272.3"/>
	<line class="st2" x1="317.3" y1="324.9" x2="317.3" y2="269.5"/>
	<line class="st2" x1="322" y1="326.4" x2="322" y2="266.6"/>
	<line class="st2" x1="326.6" y1="327.9" x2="326.6" y2="263.8"/>
	<line class="st2" x1="331.2" y1="329.3" x2="331.2" y2="260.9"/>
	<line class="st2" x1="335.9" y1="330.8" x2="335.9" y2="258.1"/>
	<line class="st2" x1="340.5" y1="332.3" x2="340.5" y2="255.2"/>
	<line class="st2" x1="345.1" y1="333.8" x2="345.1" y2="252.4"/>
	<line class="st2" x1="349.8" y1="331.3" x2="349.8" y2="249.8"/>
	<line class="st2" x1="354.4" y1="328.9" x2="354.4" y2="251.1"/>
	<line class="st2" x1="359" y1="326.4" x2="359" y2="252.4"/>
	<line class="st2" x1="363.7" y1="323.9" x2="363.7" y2="253.8"/>
	<line class="st2" x1="368.3" y1="321.4" x2="368.3" y2="255.1"/>
	<line class="st2" x1="372.9" y1="318.9" x2="372.9" y2="256.4"/>
	<line class="st2" x1="377.5" y1="316.5" x2="377.5" y2="257.7"/>
	<line class="st2" x1="382.2" y1="314" x2="382.2" y2="259.1"/>
	<line class="st2" x1="386.8" y1="311.5" x2="386.8" y2="260.4"/>
	<line class="st2" x1="391.4" y1="309" x2="391.4" y2="261.7"/>
	<line class="st2" x1="396.1" y1="306.6" x2="396.1" y2="263"/>
	<line class="st2" x1="400.7" y1="304.1" x2="400.7" y2="264.3"/>
	<line class="st2" x1="405.3" y1="304.5" x2="405.3" y2="265.7"/>
	<line class="st2" x1="410" y1="305.7" x2="410" y2="267"/>
	<line class="st2" x1="414.6" y1="306.9" x2="414.6" y2="268.3"/>
	<line class="st2" x1="419.2" y1="308.1" x2="419.2" y2="269.6"/>
	<line class="st2" x1="423.8" y1="309.3" x2="423.8" y2="271"/>
	<line class="st2" x1="428.5" y1="310.6" x2="428.5" y2="272.3"/>
	<line class="st2" x1="433.1" y1="311.8" x2="433.1" y2="273.6"/>
	<line class="st2" x1="437.7" y1="313" x2="437.7" y2="274.9"/>
	<line class="st2" x1="442.4" y1="314.2" x2="442.4" y2="276.2"/>
	<line class="st2" x1="447" y1="315.4" x2="447" y2="277.6"/>
	<line class="st2" x1="451.6" y1="316.7" x2="451.6" y2="277.3"/>
	<line class="st2" x1="456.3" y1="317.9" x2="456.3" y2="274.6"/>
	<line class="st2" x1="460.9" y1="319.1" x2="460.9" y2="272"/>
	<line class="st2" x1="465.5" y1="320.3" x2="465.5" y2="269.4"/>
	<line class="st2" x1="470.2" y1="321.5" x2="470.2" y2="266.7"/>
	<line class="st2" x1="474.8" y1="322.8" x2="474.8" y2="264.1"/>
	<polyline class="st2" points="479.4,324 479.4,302.7 479.4,297.1 479.4,261.5 	"/>
	<line class="st2" x1="484" y1="325.2" x2="484" y2="300.3"/>
	<line class="st2" x1="484" y1="287.3" x2="484" y2="258.8"/>
	<line class="st2" x1="488.7" y1="277.5" x2="488.7" y2="256.2"/>
	<line class="st2" x1="488.7" y1="326.4" x2="488.7" y2="297.8"/>
	<line class="st2" x1="493.3" y1="327.6" x2="493.3" y2="295.4"/>
	<line class="st2" x1="493.3" y1="267.7" x2="493.3" y2="253.5"/>
	<line class="st2" x1="497.9" y1="328.9" x2="497.9" y2="293"/>
	<line class="st2" x1="497.9" y1="257.9" x2="497.9" y2="250.9"/>
	<line class="st2" x1="502.6" y1="330.1" x2="502.6" y2="290.6"/>
	<line class="st2" x1="507.2" y1="323.3" x2="507.2" y2="288.2"/>
	<line class="st2" x1="511.8" y1="313.8" x2="511.8" y2="285.8"/>
	<line class="st2" x1="516.5" y1="304.2" x2="516.5" y2="283.4"/>
	<line class="st2" x1="521.1" y1="294.6" x2="521.1" y2="281"/>
	<line class="st2" x1="525.7" y1="285" x2="525.7" y2="278.6"/>
</g>
<line class="st3" x1="46.6" y1="160.7" x2="46.6" y2="244.6"/>
<circle class="st4" cx="45.2" cy="160.7" r="7.5"/>
<line class="st3" x1="70.4" y1="188.4" x2="70.4" y2="272.3"/>
<circle class="st4" cx="70.4" cy="189.7" r="7.5"/>
<line class="st3" x1="40.6" y1="418.8" x2="40.6" y2="334.9"/>
<circle class="st4" cx="42" cy="418.8" r="7.5"/>
<line class="st3" x1="16.8" y1="391.1" x2="16.8" y2="307.3"/>
<circle class="st4" cx="16.8" cy="389.8" r="7.5"/>
<line class="st3" x1="94.8" y1="215.8" x2="94.8" y2="299.7"/>
<circle class="st4" cx="94.8" cy="219.9" r="7.5"/>
<line class="st3" x1="195.9" y1="419.8" x2="195.9" y2="335.9"/>
<circle class="st4" cx="197.2" cy="419.8" r="7.5"/>
<line class="st3" x1="170.4" y1="392.1" x2="170.4" y2="308.2"/>
<circle class="st4" cx="169.4" cy="390.7" r="7.5"/>
<line class="st3" x1="146.3" y1="364.6" x2="146.3" y2="286.4"/>
<circle class="st4" cx="144.9" cy="361.9" r="7.5"/>
<line class="st3" x1="348.7" y1="419.8" x2="348.7" y2="335.9"/>
<circle class="st4" cx="350" cy="419.8" r="7.5"/>
<line class="st3" x1="324.9" y1="392.1" x2="324.9" y2="308.2"/>
<circle class="st4" cx="324.9" cy="390.7" r="7.5"/>
<circle class="st4" cx="314.3" cy="458.4" r="7.5"/>
<line class="st3" x1="297" y1="286.8" x2="297" y2="364.6"/>
<circle class="st4" cx="297.7" cy="361.9" r="7.5"/>
<line class="st3" x1="502.4" y1="419.8" x2="502.4" y2="335.9"/>
<circle class="st4" cx="503.8" cy="419.8" r="7.5"/>
<line class="st3" x1="476" y1="392.1" x2="476" y2="308.2"/>
<circle class="st4" cx="476" cy="390.7" r="7.5"/>
<line class="st3" x1="452.8" y1="366" x2="452.8" y2="282.1"/>
<circle class="st4" cx="451.5" cy="363.3" r="7.5"/>
<line class="st3" x1="198" y1="160.7" x2="198" y2="244.6"/>
<circle class="st4" cx="196.7" cy="160.7" r="7.5"/>
<line class="st3" x1="221.8" y1="188.4" x2="221.8" y2="272.3"/>
<circle class="st4" cx="221.8" cy="189.7" r="7.5"/>
<line class="st3" x1="246.3" y1="215.8" x2="246.3" y2="299.7"/>
<circle class="st4" cx="246.3" cy="219.9" r="7.5"/>
<line class="st3" x1="349.5" y1="162.1" x2="349.5" y2="246"/>
<circle class="st4" cx="348.1" cy="162.1" r="7.5"/>
<line class="st3" x1="375.9" y1="189.8" x2="375.9" y2="273.7"/>
<circle class="st4" cx="375.9" cy="191.1" r="7.5"/>
<line class="st3" x1="503.4" y1="162.1" x2="503.4" y2="246"/>
<circle class="st4" cx="502.1" cy="162.1" r="7.5"/>
<line class="st3" x1="529.9" y1="189.8" x2="529.9" y2="273.7"/>
<circle class="st4" cx="529.9" cy="191.1" r="7.5"/>
<line class="st3" x1="401.8" y1="215.9" x2="401.8" y2="299.8"/>
<circle class="st4" cx="401.8" cy="219.9" r="7.5"/>
<g>
	<circle class="st5" cx="46.6" cy="248.3" r="9.2"/>
	<circle class="st5" cx="70.4" cy="276" r="9.2"/>
	<circle class="st5" cx="40.6" cy="331.2" r="9.2"/>
	<circle class="st5" cx="16.8" cy="303.5" r="9.2"/>
	<circle class="st5" cx="94.8" cy="303.5" r="9.2"/>
	<circle class="st5" cx="195.9" cy="332.1" r="9.2"/>
	<circle class="st5" cx="226.1" cy="457" r="9.2"/>
	<circle class="st5" cx="170.4" cy="304.5" r="9.2"/>
	<circle class="st5" cx="144.9" cy="278.3" r="9.2"/>
	<circle class="st5" cx="347.3" cy="332.1" r="9.2"/>
	<circle class="st5" cx="324.9" cy="304.5" r="9.2"/>
	<circle class="st5" cx="297.7" cy="278.3" r="9.2"/>
	<circle class="st5" cx="501.1" cy="332.1" r="9.2"/>
	<circle class="st5" cx="476" cy="304.5" r="9.2"/>
	<circle class="st5" cx="451.5" cy="279.7" r="9.2"/>
	<circle class="st5" cx="198" cy="248.3" r="9.2"/>
	<circle class="st5" cx="221.8" cy="276" r="9.2"/>
	<circle class="st5" cx="246.3" cy="303.5" r="9.2"/>
	<circle class="st5" cx="349.5" cy="249.7" r="9.2"/>
	<circle class="st5" cx="375.9" cy="277.4" r="9.2"/>
	<circle class="st5" cx="503.4" cy="249.7" r="9.2"/>
	<circle class="st5" cx="529.9" cy="277.4" r="9.2"/>
	<circle class="st5" cx="401.8" cy="303.5" r="9.2"/>
</g>
<text transform="matrix(1 0 0 1 242.1613 463.1906)" class="st6 st7 st8">C</text>
<text transform="matrix(1 0 0 1 330.7814 463.1896)" class="st6 st7 st8">F</text>
</svg>
