<?xml version="1.0" encoding="utf-8"?>
<!-- Generator: Adobe Illustrator 25.0.1, SVG Export Plug-In . SVG Version: 6.00 Build 0)  -->
<svg version="1.1" xmlns="http://www.w3.org/2000/svg" xmlns:xlink="http://www.w3.org/1999/xlink" x="0px" y="0px"
	 viewBox="0 0 544 668" style="enable-background:new 0 0 544 668;" xml:space="preserve">
<style type="text/css">
	.st0{display:none;}
	.st1{display:inline;fill:#434244;}
	.st2{fill:none;stroke:#929496;stroke-width:0.75;stroke-miterlimit:10;}
	.st3{fill:none;stroke:#929496;stroke-width:0.75;stroke-miterlimit:10;stroke-dasharray:12.2883,12.2883;}
	.st4{fill:none;stroke:#929496;stroke-width:0.75;stroke-miterlimit:10;stroke-dasharray:12.2721,12.2721;}
	.st5{fill:none;stroke:#929496;stroke-width:0.75;stroke-miterlimit:10;stroke-dasharray:12.3826,12.3826;}
	.st6{fill:none;stroke:#929496;stroke-width:0.75;stroke-miterlimit:10;stroke-dasharray:12.4406,12.4406;}
	.st7{fill:none;stroke:#929496;stroke-width:0.75;stroke-miterlimit:10;stroke-dasharray:12.1236,12.1236;}
	.st8{fill:none;stroke:#929496;stroke-width:0.75;stroke-miterlimit:10;stroke-dasharray:12.6434,12.6434;}
	.st9{fill:none;stroke:#929496;stroke-width:0.75;stroke-miterlimit:10;stroke-dasharray:12.946,12.946;}
	.st10{fill:none;stroke:#929496;stroke-width:0.75;stroke-miterlimit:10;stroke-dasharray:12.8103,12.8103;}
	.st11{display:none;fill:#FFFFFF;stroke:#59595B;stroke-width:0.5;stroke-miterlimit:10;}
	.st12{display:none;fill:none;stroke:#FFFFFF;stroke-width:0.5;stroke-miterlimit:10;}
	.st13{fill:#434244;}
	.st14{fill:none;stroke:#FFFFFF;stroke-width:0.5;stroke-miterlimit:10;}
	.st15{fill:#FFFFFF;stroke:#59595B;stroke-width:0.9794;stroke-miterlimit:10;}
	.st16{fill:none;stroke:#59595B;stroke-width:0.9794;stroke-miterlimit:10;}
	.st17{display:inline;fill:none;stroke:#59595B;stroke-width:0.9794;stroke-miterlimit:10;}
	.st18{fill:none;stroke:#FFFFFF;stroke-miterlimit:10;}
	.st19{fill:#FFFFFF;stroke:#000000;stroke-miterlimit:10;}
	.st20{fill:#D35B30;}
	.st21{fill:#FFFFFF;stroke:#FFFFFF;stroke-miterlimit:10;}
	.st22{fill:#FFFFFF;}
	.st23{font-family:'Roboto-Regular';}
	.st24{font-size:12px;}
	.st25{fill:none;stroke:#FFFFFF;stroke-width:0.75;stroke-miterlimit:10;}
	.st26{font-family:'LucidaBright';}
	.st27{font-family:'Poppins-Bold';}
	.st28{fill:none;stroke:#FFFFFF;stroke-width:2;stroke-miterlimit:10;}
	.st29{font-size:12.9659px;}
</style>
<g id="Layer_1" class="st0">
	<image style="display:inline;overflow:visible;" width="544" height="668" xlink:href="481C76C310548F01.jpg" >
	</image>
	<image style="display:inline;overflow:visible;" width="544" height="668" xlink:href="481C76C310548F03.jpg" >
	</image>
</g>
<g id="Ebene_7" class="st0">
	<rect x="1.1" y="1.2" class="st1" width="543.3" height="665.9"/>
</g>
<g id="Background_x5F_lines">
	<g>
		<g>
			<line class="st2" x1="410.8" y1="172.1" x2="410.8" y2="178.1"/>
			<line class="st3" x1="410.8" y1="190.4" x2="410.8" y2="552.9"/>
			<line class="st2" x1="410.8" y1="559" x2="410.8" y2="565"/>
		</g>
	</g>
	<g>
		<g>
			<line class="st2" x1="392.6" y1="103.3" x2="392.6" y2="109.6"/>
			<line class="st4" x1="392.6" y1="121.8" x2="392.6" y2="483.9"/>
			<line class="st2" x1="392.6" y1="490" x2="392.6" y2="496.2"/>
		</g>
	</g>
	<g>
		<g>
			<line class="st2" x1="372.8" y1="148.7" x2="372.8" y2="155"/>
			<line class="st5" x1="372.8" y1="167.4" x2="372.8" y2="532.7"/>
			<line class="st2" x1="372.8" y1="538.9" x2="372.8" y2="545.1"/>
		</g>
	</g>
	<g>
		<g>
			<line class="st2" x1="354.3" y1="105.7" x2="354.3" y2="112"/>
			<line class="st6" x1="354.3" y1="124.4" x2="354.3" y2="466.5"/>
			<line class="st2" x1="354.3" y1="472.7" x2="354.3" y2="479"/>
		</g>
	</g>
	<g>
		<g>
			<line class="st2" x1="192" y1="199.1" x2="192" y2="205.1"/>
			<line class="st3" x1="192" y1="217.4" x2="192" y2="579.9"/>
			<line class="st2" x1="192" y1="586" x2="192" y2="592"/>
		</g>
	</g>
	<g>
		<g>
			<line class="st2" x1="173.8" y1="130.3" x2="173.8" y2="136.6"/>
			<line class="st4" x1="173.8" y1="148.8" x2="173.8" y2="510.9"/>
			<line class="st2" x1="173.8" y1="517" x2="173.8" y2="523.2"/>
		</g>
	</g>
	<g>
		<g>
			<line class="st2" x1="153.9" y1="175.7" x2="153.9" y2="182"/>
			<line class="st5" x1="153.9" y1="194.4" x2="153.9" y2="559.7"/>
			<line class="st2" x1="153.9" y1="565.9" x2="153.9" y2="572.1"/>
		</g>
	</g>
	<g>
		<g>
			<line class="st2" x1="135.5" y1="132.7" x2="135.5" y2="139"/>
			<line class="st6" x1="135.5" y1="151.4" x2="135.5" y2="493.5"/>
			<line class="st2" x1="135.5" y1="499.7" x2="135.5" y2="506"/>
		</g>
	</g>
	<g>
		<g>
			<line class="st2" x1="228.5" y1="105.7" x2="228.5" y2="112"/>
			<line class="st6" x1="228.5" y1="124.4" x2="228.5" y2="466.5"/>
			<line class="st2" x1="228.5" y1="472.7" x2="228.5" y2="479"/>
		</g>
	</g>
	<g>
		<g>
			<line class="st2" x1="323.4" y1="197.1" x2="323.4" y2="203.4"/>
			<line class="st7" x1="323.4" y1="215.5" x2="323.4" y2="548.9"/>
			<line class="st2" x1="323.4" y1="554.9" x2="323.4" y2="561.2"/>
		</g>
	</g>
	<g>
		<g>
			<line class="st2" x1="305" y1="167" x2="305" y2="173.2"/>
			<line class="st8" x1="305" y1="185.9" x2="305" y2="508.3"/>
			<line class="st2" x1="305" y1="514.6" x2="305" y2="520.9"/>
		</g>
	</g>
	<g>
		<g>
			<line class="st2" x1="284.6" y1="178.7" x2="284.6" y2="185"/>
			<line class="st9" x1="284.6" y1="197.9" x2="284.6" y2="528"/>
			<line class="st2" x1="284.6" y1="534.5" x2="284.6" y2="540.8"/>
		</g>
	</g>
	<g>
		<g>
			<line class="st2" x1="266.2" y1="117.5" x2="266.2" y2="123.7"/>
			<line class="st10" x1="266.2" y1="136.5" x2="266.2" y2="488.8"/>
			<line class="st2" x1="266.2" y1="495.2" x2="266.2" y2="501.5"/>
		</g>
	</g>
	<g>
		<g>
			<line class="st2" x1="248.9" y1="158.1" x2="248.9" y2="164.4"/>
			<line class="st10" x1="248.9" y1="177.2" x2="248.9" y2="529.5"/>
			<line class="st2" x1="248.9" y1="535.9" x2="248.9" y2="542.1"/>
		</g>
	</g>
</g>
<g id="Layer_5">
	<g>
		<polygon id="dreieck" class="st11" points="285.2,175.6 264.5,253.3 224.9,229.8 		"/>
		<polygon id="dreieck_1_" class="st12" points="285.2,175.6 264.5,253.3 224.9,229.8 		"/>
		<polygon class="st13" points="284.2,175.9 350.9,232.1 263.5,253.6 		"/>
		<polygon class="st14" points="284.2,175.9 350.9,232.1 263.5,253.6 		"/>
		<g>
			<line class="st14" x1="285" y1="176.2" x2="284.6" y2="176.2"/>
			<line class="st14" x1="284.3" y1="178.7" x2="281.7" y2="178.7"/>
			<line class="st14" x1="283.7" y1="181.3" x2="278.9" y2="181.3"/>
			<line class="st14" x1="283" y1="183.8" x2="276" y2="183.8"/>
			<line class="st14" x1="282.3" y1="186.4" x2="273.2" y2="186.4"/>
			<line class="st14" x1="281.6" y1="188.9" x2="270.4" y2="188.9"/>
			<line class="st14" x1="280.9" y1="191.5" x2="267.5" y2="191.5"/>
			<line class="st14" x1="280.3" y1="194" x2="264.7" y2="194"/>
			<line class="st14" x1="279.6" y1="196.6" x2="261.8" y2="196.6"/>
			<line class="st14" x1="278.9" y1="199.1" x2="259" y2="199.1"/>
			<line class="st14" x1="278.2" y1="201.7" x2="256.2" y2="201.7"/>
			<line class="st14" x1="277.6" y1="204.2" x2="253.3" y2="204.2"/>
			<line class="st14" x1="276.9" y1="206.8" x2="250.5" y2="206.8"/>
			<line class="st14" x1="276.2" y1="209.3" x2="247.7" y2="209.3"/>
		</g>
		<g>
			<line class="st14" x1="275.5" y1="211.9" x2="244.8" y2="211.9"/>
			<line class="st14" x1="274.8" y1="214.5" x2="242" y2="214.5"/>
			<line class="st14" x1="274.2" y1="217" x2="239.1" y2="217"/>
			<line class="st14" x1="273.5" y1="219.6" x2="236.3" y2="219.6"/>
			<line class="st14" x1="272.8" y1="222.1" x2="233.4" y2="222.1"/>
			<line class="st14" x1="272.1" y1="224.7" x2="230.6" y2="224.7"/>
			<line class="st14" x1="271.5" y1="227.2" x2="227.8" y2="227.2"/>
			<line class="st14" x1="270.8" y1="229.8" x2="224.9" y2="229.8"/>
			<line class="st14" x1="270.1" y1="232.3" x2="229.2" y2="232.3"/>
			<line class="st14" x1="269.4" y1="234.9" x2="233.5" y2="234.9"/>
			<line class="st14" x1="268.7" y1="237.4" x2="237.8" y2="237.4"/>
			<line class="st14" x1="268.1" y1="240" x2="242.1" y2="240"/>
			<line class="st14" x1="267.4" y1="242.5" x2="246.4" y2="242.5"/>
			<line class="st14" x1="266.7" y1="245.1" x2="250.7" y2="245.1"/>
			<line class="st14" x1="266" y1="247.6" x2="255" y2="247.6"/>
			<line class="st14" x1="265.4" y1="250.2" x2="259.3" y2="250.2"/>
			<line class="st14" x1="264.7" y1="252.8" x2="263.6" y2="252.8"/>
		</g>
		<g>
			<line class="st14" x1="284.3" y1="176" x2="284.1" y2="176.2"/>
			<line class="st14" x1="286.2" y1="177.7" x2="282.7" y2="181.2"/>
			<line class="st14" x1="288.2" y1="179.3" x2="281.4" y2="186.2"/>
			<line class="st14" x1="290.2" y1="181" x2="280.1" y2="191.2"/>
			<line class="st14" x1="292.1" y1="182.6" x2="278.8" y2="196.2"/>
			<polyline class="st14" points="277.4,201.2 277.4,201.2 294.1,184.3 			"/>
			<line class="st14" x1="296" y1="185.9" x2="276.1" y2="206.2"/>
			<line class="st14" x1="298" y1="187.6" x2="274.8" y2="211.1"/>
			<line class="st14" x1="300" y1="189.2" x2="273.5" y2="216.1"/>
			<line class="st14" x1="301.9" y1="190.9" x2="272.1" y2="221.1"/>
			<line class="st14" x1="303.9" y1="192.5" x2="270.8" y2="226.1"/>
			<line class="st14" x1="305.8" y1="194.2" x2="269.5" y2="231.1"/>
			<polyline class="st14" points="268.2,236.1 268.2,236.1 307.8,195.8 			"/>
			<line class="st14" x1="309.7" y1="197.5" x2="266.8" y2="241.1"/>
			<polyline class="st14" points="265.5,246 265.5,246 311.7,199.1 			"/>
			<line class="st14" x1="313.7" y1="200.8" x2="264.2" y2="251"/>
			<polyline class="st14" points="265.9,253 265.9,253 315.6,202.4 			"/>
		</g>
		<g>
			<polyline class="st14" points="270.6,251.8 270.6,251.8 317.6,204.1 			"/>
			<polyline class="st14" points="275.3,250.7 275.3,250.7 319.5,205.7 			"/>
			<line class="st14" x1="321.5" y1="207.4" x2="280" y2="249.5"/>
			<line class="st14" x1="323.5" y1="209" x2="284.8" y2="248.3"/>
			<line class="st14" x1="325.4" y1="210.7" x2="289.5" y2="247.2"/>
			<line class="st14" x1="327.4" y1="212.3" x2="294.2" y2="246"/>
			<line class="st14" x1="329.3" y1="214" x2="298.9" y2="244.9"/>
			<line class="st14" x1="331.3" y1="215.6" x2="303.6" y2="243.7"/>
			<line class="st14" x1="333.2" y1="217.3" x2="308.4" y2="242.5"/>
			<line class="st14" x1="335.2" y1="218.9" x2="313.1" y2="241.4"/>
			<polyline class="st14" points="317.8,240.2 317.8,240.2 337.2,220.6 			"/>
			<polyline class="st14" points="322.5,239.1 322.5,239.1 339.1,222.2 			"/>
			<line class="st14" x1="341.1" y1="223.9" x2="327.3" y2="237.9"/>
			<line class="st14" x1="343" y1="225.5" x2="332" y2="236.8"/>
			<line class="st14" x1="345" y1="227.2" x2="336.7" y2="235.6"/>
			<line class="st14" x1="347" y1="228.8" x2="341.4" y2="234.4"/>
			<line class="st14" x1="348.9" y1="230.5" x2="346.2" y2="233.3"/>
		</g>
	</g>
	<polygon class="st15" points="133.6,116.1 174.9,144.9 260.7,116.1 	"/>
	<polygon class="st15" points="133.6,116.1 174.9,144.9 260.7,116.1 	"/>
	<polygon class="st15" points="174.9,144.9 193.1,198.6 133.6,116.1 	"/>
	<polygon class="st15" points="174.9,144.9 193.1,198.6 133.6,116.1 	"/>
	<polygon class="st15" points="174.9,144.9 260.7,116.1 194.3,202.1 	"/>
	<polygon class="st15" points="174.9,144.9 260.7,116.1 194.3,202.1 	"/>
	<line class="st16" x1="255.1" y1="118" x2="136.3" y2="118"/>
	<line class="st16" x1="247.6" y1="120.5" x2="139.9" y2="120.5"/>
	<line class="st16" x1="240.1" y1="123" x2="143.5" y2="123"/>
	<line class="st16" x1="232.7" y1="125.5" x2="147.1" y2="125.5"/>
	<line class="st16" x1="225.2" y1="128" x2="150.7" y2="128"/>
	<line class="st16" x1="217.8" y1="130.5" x2="154.3" y2="130.5"/>
	<line class="st16" x1="210.3" y1="133" x2="157.8" y2="133"/>
	<line class="st16" x1="202.8" y1="135.5" x2="161.4" y2="135.5"/>
	<line class="st16" x1="195.4" y1="138" x2="165" y2="138"/>
	<line class="st16" x1="187.9" y1="140.5" x2="168.6" y2="140.5"/>
	<line class="st16" x1="180.5" y1="143" x2="172.2" y2="143"/>
	<g>
		<polyline class="st16" points="169.2,140.9 177.5,152.7 177.5,152.7 		"/>
		<polyline class="st16" points="163.1,136.7 163.1,136.7 180.3,160.9 		"/>
		<line class="st16" x1="183.1" y1="169.2" x2="157.1" y2="132.5"/>
		<polyline class="st16" points="151,128.2 186,177.5 186,177.5 		"/>
		<polyline class="st16" points="144.9,124 188.8,185.8 188.8,185.8 		"/>
		<line class="st16" x1="191.6" y1="194.1" x2="138.9" y2="119.8"/>
	</g>
	<g class="st0">
		<line class="st17" x1="178.4" y1="143.7" x2="175.7" y2="147.2"/>
		<line class="st17" x1="182.6" y1="142.3" x2="176.6" y2="150"/>
		<line class="st17" x1="186.9" y1="140.9" x2="177.6" y2="152.9"/>
		<line class="st17" x1="191.1" y1="139.4" x2="178.6" y2="155.7"/>
		<line class="st17" x1="195.4" y1="138" x2="179.5" y2="158.6"/>
		<polyline class="st17" points="180.5,161.4 199.7,136.6 199.7,136.6 		"/>
		<line class="st17" x1="203.9" y1="135.1" x2="181.5" y2="164.3"/>
		<line class="st17" x1="208.2" y1="133.7" x2="182.4" y2="167.1"/>
		<line class="st17" x1="212.5" y1="132.3" x2="183.4" y2="169.9"/>
		<line class="st17" x1="216.7" y1="130.9" x2="184.4" y2="172.8"/>
		<polyline class="st17" points="185.3,175.6 221,129.4 221,129.4 		"/>
		<polyline class="st17" points="186.3,178.5 225.2,128 225.2,128 		"/>
		<line class="st17" x1="229.5" y1="126.6" x2="187.3" y2="181.3"/>
		<line class="st17" x1="233.8" y1="125.1" x2="188.2" y2="184.1"/>
		<line class="st17" x1="238" y1="123.7" x2="189.2" y2="187"/>
		<line class="st17" x1="242.3" y1="122.3" x2="190.1" y2="189.8"/>
		<polyline class="st17" points="191.1,192.7 246.5,120.9 246.5,120.9 		"/>
		<polyline class="st17" points="192.1,195.5 250.8,119.4 250.8,119.4 		"/>
		<polyline class="st17" points="193,198.4 255.1,118 255.1,118 		"/>
		<line class="st17" x1="259.3" y1="116.6" x2="194" y2="201.2"/>
	</g>
	<polygon class="st15" points="263.7,116.1 304.9,144.9 390.7,116.1 	"/>
	<polygon class="st15" points="263.7,116.1 304.9,144.9 390.7,116.1 	"/>
	<polygon class="st15" points="304.9,144.9 323.2,198.6 263.7,116.1 	"/>
	<polygon class="st15" points="304.9,144.9 323.2,198.6 263.7,116.1 	"/>
	<polygon class="st15" points="304.9,144.9 390.7,116.1 324.4,202.1 	"/>
	<polygon class="st15" points="304.9,144.9 390.7,116.1 324.4,202.1 	"/>
	<line class="st16" x1="385.1" y1="118" x2="266.4" y2="118"/>
	<line class="st16" x1="377.7" y1="120.5" x2="269.9" y2="120.5"/>
	<line class="st16" x1="370.2" y1="123" x2="273.5" y2="123"/>
	<line class="st16" x1="362.7" y1="125.5" x2="277.1" y2="125.5"/>
	<line class="st16" x1="355.3" y1="128" x2="280.7" y2="128"/>
	<line class="st16" x1="347.8" y1="130.5" x2="284.3" y2="130.5"/>
	<line class="st16" x1="340.3" y1="133" x2="287.9" y2="133"/>
	<line class="st16" x1="332.9" y1="135.5" x2="291.5" y2="135.5"/>
	<line class="st16" x1="325.5" y1="138" x2="295.1" y2="138"/>
	<line class="st16" x1="318" y1="140.5" x2="298.7" y2="140.5"/>
	<line class="st16" x1="310.5" y1="143" x2="302.3" y2="143"/>
	<g class="st0">
		<polyline class="st17" points="299.2,140.9 307.6,152.7 307.6,152.7 		"/>
		<polyline class="st17" points="293.2,136.7 293.2,136.7 310.4,160.9 		"/>
		<line class="st17" x1="313.2" y1="169.2" x2="287.1" y2="132.5"/>
		<polyline class="st17" points="281,128.2 316,177.5 316,177.5 		"/>
		<polyline class="st17" points="275,124 318.8,185.8 318.8,185.8 		"/>
		<line class="st17" x1="321.6" y1="194.1" x2="268.9" y2="119.8"/>
	</g>
	<g>
		<line class="st16" x1="308.4" y1="143.7" x2="305.7" y2="147.2"/>
		<line class="st16" x1="312.7" y1="142.3" x2="306.7" y2="150"/>
		<line class="st16" x1="316.9" y1="140.9" x2="307.6" y2="152.9"/>
		<line class="st16" x1="321.2" y1="139.4" x2="308.6" y2="155.7"/>
		<line class="st16" x1="325.5" y1="138" x2="309.6" y2="158.6"/>
		<polyline class="st16" points="310.5,161.4 329.7,136.6 329.7,136.6 		"/>
		<line class="st16" x1="334" y1="135.1" x2="311.5" y2="164.3"/>
		<line class="st16" x1="338.2" y1="133.7" x2="312.5" y2="167.1"/>
		<line class="st16" x1="342.5" y1="132.3" x2="313.4" y2="169.9"/>
		<line class="st16" x1="346.8" y1="130.9" x2="314.4" y2="172.8"/>
		<polyline class="st16" points="315.4,175.6 351,129.4 351,129.4 		"/>
		<polyline class="st16" points="316.3,178.5 355.3,128 355.3,128 		"/>
		<line class="st16" x1="359.5" y1="126.6" x2="317.3" y2="181.3"/>
		<line class="st16" x1="363.8" y1="125.1" x2="318.3" y2="184.1"/>
		<line class="st16" x1="368.1" y1="123.7" x2="319.2" y2="187"/>
		<line class="st16" x1="372.3" y1="122.3" x2="320.2" y2="189.8"/>
		<polyline class="st16" points="321.1,192.7 376.6,120.9 376.6,120.9 		"/>
		<polyline class="st16" points="322.1,195.5 380.8,119.4 380.8,119.4 		"/>
		<polyline class="st16" points="323.1,198.4 385.1,118 385.1,118 		"/>
		<line class="st16" x1="389.4" y1="116.6" x2="324" y2="201.2"/>
	</g>
</g>
<g id="Layer_4">
	<polyline class="st18" points="228.7,94 265,115.9 355.1,94 	"/>
	<polygon class="st18" points="133.7,118.3 228.7,94 355.1,94 390.6,115.9 304.8,140.3 265,115.9 173.8,141.7 	"/>
	<polygon class="st18" points="154.8,178.7 249.8,153.9 373.4,152.5 410.8,177.5 324.8,197.7 285,177.5 193.1,199.2 	"/>
	<line class="st18" x1="193.1" y1="199.2" x2="324.8" y2="197.7"/>
	<polyline class="st18" points="249.8,153.9 285,177.5 373.4,152.5 	"/>
	<polyline class="st18" points="154.8,178.7 285,177.5 410.8,177.5 	"/>
	<polygon class="st18" points="228.7,230.1 353.8,230.1 393.1,251.5 304.8,276.9 174.1,276.9 129.6,251.5 	"/>
	<polyline class="st18" points="134.8,254.4 264,253.3 393.1,251.5 	"/>
	<polyline class="st18" points="174.1,276.9 264,253.3 304.8,276.9 	"/>
	<polyline class="st18" points="228.7,232.9 264,253.3 353.8,230.1 	"/>
	<polyline class="st18" points="248.4,403.3 284.6,425.2 374.7,403.3 	"/>
	<polygon class="st18" points="153.3,427.6 248.4,403.3 374.7,403.3 410.2,425.2 324.4,449.6 284.6,425.2 193.5,451 	"/>
	<polygon class="st18" points="136.5,503 231.4,478.2 355,476.8 392.5,501.8 306.5,522 266.6,501.8 174.7,523.5 	"/>
	<line class="st18" x1="174.7" y1="523.5" x2="306.5" y2="522"/>
	<polyline class="st18" points="231.4,478.2 266.6,501.8 355,476.8 	"/>
	<polyline class="st18" points="136.5,503 266.6,501.8 392.5,501.8 	"/>
	<polygon class="st18" points="248.4,541.4 373.5,541.4 412.8,562.8 324.4,588.2 193.8,588.2 150.3,565.8 	"/>
	<polyline class="st18" points="154.4,565.7 283.6,564.6 412.8,562.8 	"/>
	<polyline class="st18" points="193.8,588.2 283.6,564.6 324.4,588.2 	"/>
	<polyline class="st18" points="248.4,544.2 283.6,564.6 373.5,541.4 	"/>
	<line class="st18" x1="193.5" y1="451" x2="321.9" y2="451"/>
	<line class="st18" x1="153.3" y1="427.6" x2="405.3" y2="426.6"/>
</g>
<g id="Layer_2">
	<circle class="st19" cx="133.7" cy="118.3" r="12.2"/>
	<circle class="st19" cx="228.7" cy="94" r="12.2"/>
	<circle class="st19" cx="355.1" cy="94" r="12.2"/>
	<circle class="st19" cx="390.6" cy="115.9" r="12.2"/>
	<circle class="st19" cx="304.8" cy="140.3" r="12.2"/>
	<circle class="st19" cx="265" cy="115.9" r="12.2"/>
	<circle class="st19" cx="173.8" cy="141.7" r="12.2"/>
	<circle class="st19" cx="228.7" cy="232.9" r="12.2"/>
	<circle class="st19" cx="266" cy="253.3" r="12.2"/>
	<circle class="st19" cx="353.8" cy="230.1" r="12.2"/>
	<circle class="st19" cx="393.1" cy="251.5" r="12.2"/>
	<circle class="st19" cx="305.8" cy="275.9" r="12.2"/>
	<circle class="st19" cx="174.1" cy="276.9" r="12.2"/>
	<circle class="st19" cx="134.8" cy="254.4" r="12.2"/>
	<circle class="st19" cx="45.1" cy="197.1" r="12.2"/>
	<g>
		<circle class="st20" cx="154.8" cy="178.7" r="6.8"/>
		<circle class="st20" cx="45.1" cy="157.4" r="6.8"/>
		<circle class="st20" cx="249.8" cy="153.9" r="6.8"/>
		<circle class="st20" cx="373.4" cy="152.5" r="6.8"/>
		<circle class="st20" cx="410.8" cy="177.5" r="6.8"/>
		<circle class="st20" cx="324.8" cy="197.7" r="6.8"/>
		<circle class="st20" cx="285" cy="177.5" r="6.8"/>
		<circle class="st20" cx="193.1" cy="199.2" r="6.8"/>
	</g>
	<circle class="st19" cx="153.3" cy="427.6" r="12.2"/>
	<circle class="st19" cx="248.4" cy="403.3" r="12.2"/>
	<circle class="st19" cx="374.7" cy="403.3" r="12.2"/>
	<circle class="st19" cx="411.2" cy="423.2" r="12.2"/>
	<circle class="st19" cx="324.4" cy="449.6" r="12.2"/>
	<circle class="st19" cx="284.6" cy="425.2" r="12.2"/>
	<circle class="st19" cx="193.5" cy="451" r="12.2"/>
	<circle class="st19" cx="248.4" cy="542.2" r="12.2"/>
	<circle class="st19" cx="285.6" cy="564.6" r="12.2"/>
	<circle class="st19" cx="373.5" cy="539.4" r="12.2"/>
	<circle class="st19" cx="412.8" cy="562.8" r="12.2"/>
	<circle class="st19" cx="325.5" cy="587.2" r="12.2"/>
	<circle class="st19" cx="193.8" cy="588.2" r="12.2"/>
	<circle class="st19" cx="154.4" cy="565.7" r="12.2"/>
	<g>
		<circle class="st20" cx="136.5" cy="503" r="6.8"/>
		<circle class="st20" cx="231.4" cy="478.2" r="6.8"/>
		<circle class="st20" cx="355" cy="476.8" r="6.8"/>
		<circle class="st20" cx="392.5" cy="501.8" r="6.8"/>
		<circle class="st20" cx="306.5" cy="522" r="6.8"/>
		<circle class="st20" cx="266.6" cy="501.8" r="6.8"/>
		<circle class="st20" cx="174.7" cy="523.5" r="6.8"/>
	</g>
	<path class="st19" d="M321.9,451"/>
	<path class="st19" d="M193.5,451"/>
	<path class="st19" d="M321.9,451"/>
	<path class="st19" d="M193.5,451"/>
</g>
<g id="Layer_6">
	<line class="st21" x1="417.7" y1="111.6" x2="510.6" y2="111.6"/>
	<line class="st21" x1="438.7" y1="562.8" x2="510.6" y2="562.8"/>
	<g>
		<line class="st22" x1="488.4" y1="111.6" x2="488.4" y2="326.8"/>
		<g>
			<line class="st18" x1="488.4" y1="117.6" x2="488.4" y2="326.8"/>
			<g>
				<path class="st22" d="M488.4,111.6c-1.1,2.8-2.9,6.4-4.8,8.5l4.8-1.7l4.8,1.7C491.2,117.9,489.4,114.4,488.4,111.6z"/>
			</g>
		</g>
	</g>
	<g>
		<line class="st22" x1="488.4" y1="350.1" x2="488.4" y2="562.8"/>
		<g>
			<line class="st18" x1="488.4" y1="350.1" x2="488.4" y2="556.8"/>
			<g>
				<path class="st22" d="M488.4,562.8c-1.1-2.8-2.9-6.4-4.8-8.5l4.8,1.7l4.8-1.7C491.2,556.4,489.4,560,488.4,562.8z"/>
			</g>
		</g>
	</g>
	<line class="st21" x1="435.9" y1="423.2" x2="474.6" y2="423.2"/>
	<g>
		<line class="st22" x1="458.8" y1="423.2" x2="458.8" y2="478.2"/>
		<g>
			<line class="st18" x1="458.8" y1="429.3" x2="458.8" y2="478.2"/>
			<g>
				<path class="st22" d="M458.8,423.2c-1.1,2.8-2.9,6.4-4.8,8.5l4.8-1.7l4.8,1.7C461.6,429.6,459.8,426.1,458.8,423.2z"/>
			</g>
		</g>
	</g>
	<g>
		<line class="st22" x1="458.8" y1="503" x2="458.8" y2="562.8"/>
		<g>
			<line class="st18" x1="458.8" y1="503" x2="458.8" y2="556.8"/>
			<g>
				<path class="st22" d="M458.8,562.8c-1.1-2.8-2.9-6.4-4.8-8.5l4.8,1.7l4.8-1.7C461.6,556.4,459.8,560,458.8,562.8z"/>
			</g>
		</g>
	</g>
	<text transform="matrix(1 0 0 1 453.9425 343.9195)" class="st22 st23 st24">c</text>
	<text transform="matrix(0.583 0 0 0.583 460.2238 347.9156)" class="st22 st23 st24">0 </text>
	<text transform="matrix(1 0 0 1 468.9003 344.9199)" class="st22 st23 st24">= 12.30 Ȧ</text>
	<path class="st25" d="M451.9,483.6c0,0-3.9,6.8-3.4,9.9c0.5,3.1,2.4-1.7,2.4-1.7"/>
	<text transform="matrix(1 0 0 1 455.9425 493.4783)" class="st22 st26 st24">= a</text>
	<text transform="matrix(0.583 0 0 0.583 471.422 497.4744)" class="st22 st26 st24">0</text>
	<text transform="matrix(1 0 0 1 63.5166 160.9447)" class="st22 st27 st24">M</text>
	<text transform="matrix(0.7 0 0 0.7 74.5327 160.9447)" class="st22 st27 st24">o</text>
	<text transform="matrix(1 0 0 1 73.3889 207.3642)" class="st22 st27 st24">S</text>
	<g>
		<g>
			<line class="st28" x1="21.3" y1="340.8" x2="101.6" y2="340.8"/>
			<g>
				<polygon class="st22" points="96,348.2 99.1,340.8 96,333.4 113.6,340.8 				"/>
			</g>
		</g>
	</g>
	<text transform="matrix(1 0 0 1 33.8996 331.2384)" class="st22 st27 st24">(002)</text>
	<g>
		<g>
			<line class="st28" x1="21.3" y1="577.9" x2="21.3" y2="488.7"/>
			<g>
				<polygon class="st22" points="28.7,494.3 21.3,491.2 13.9,494.3 21.3,476.8 				"/>
			</g>
		</g>
	</g>
	<g>
		<g>
			<line class="st28" x1="82.3" y1="554.8" x2="21.3" y2="577.9"/>
			<g>
				<polygon class="st22" points="74.4,549.9 80,555.7 79.7,563.8 93.5,550.6 				"/>
			</g>
		</g>
	</g>
	<g>
		<g>
			<line class="st28" x1="21.3" y1="577.9" x2="76.8" y2="577.9"/>
			<g>
				<polygon class="st22" points="71.2,585.3 74.3,577.9 71.2,570.5 88.7,577.9 				"/>
			</g>
		</g>
	</g>
	<text transform="matrix(1 0 0 1 33.8996 493.4783)" class="st22 st27 st24">(001)</text>
	<text transform="matrix(0.9827 0.185 -0.185 0.9827 30.4171 597.0422)" class="st22 st27 st24">(010)</text>
	<text transform="matrix(0.9266 -0.3759 0.3759 0.9266 33.0543 562.9149)" class="st22 st27 st24">(100)</text>
	<text transform="matrix(1 0 0 1 224.631 626.6945)" class="st22 st23 st29">a</text>
	<text transform="matrix(0.583 0 0 0.583 231.6837 631.0118)" class="st22 st23 st29">0</text>
	<text transform="matrix(1 0 0 1 235.9284 626.6945)" class="st22 st23 st29"> = 3.15 Ȧ </text>
	<line class="st18" x1="192" y1="609.9" x2="192" y2="637.5"/>
	<g>
		<g>
			<line class="st18" x1="198" y1="623.7" x2="215" y2="623.7"/>
			<g>
				<polygon class="st22" points="200.8,627.4 199.2,623.7 200.8,620 192,623.7 				"/>
			</g>
		</g>
	</g>
	<line class="st18" x1="325.4" y1="637.5" x2="325.4" y2="609.9"/>
	<g>
		<g>
			<line class="st18" x1="319.5" y1="623.7" x2="302.5" y2="623.7"/>
			<g>
				<polygon class="st22" points="316.7,620 318.2,623.7 316.7,627.4 325.4,623.7 				"/>
			</g>
		</g>
	</g>
</g>
</svg>
