<?xml version="1.0" encoding="utf-8"?>
<!-- Generator: Adobe Illustrator 26.0.3, SVG Export Plug-In . SVG Version: 6.00 Build 0)  -->
<svg version="1.1" xmlns="http://www.w3.org/2000/svg" xmlns:xlink="http://www.w3.org/1999/xlink" x="0px" y="0px"
	 viewBox="0 0 709 169" style="enable-background:new 0 0 709 169;" xml:space="preserve">
<style type="text/css">
	.st0{display:none;}
	.st1{display:inline;}
	.st2{fill:#1E1D1C;}
</style>
<g id="Ebene_1" class="st0">
	<g class="st1">
		<path class="st2" d="M134.2,109.4c0,39.8-28.5,58.9-66.1,58.9c-37.5,0-66.1-19-66.1-58.9V14.2h35.9V106
			c0,23.2,10.7,33.3,30.2,33.3s30.2-10.2,30.2-33.3V14.2h35.9L134.2,109.4L134.2,109.4z"/>
		<path class="st2" d="M228,44.1v120.8h-35.9V44.1h-47.8V14.2h131.5v29.9H228z"/>
		<path class="st2" d="M431.1,89.6c0,49.9-31.4,78.7-75.4,78.7s-75.4-28.8-75.4-78.7s31.4-78.7,75.4-78.7S431.1,39.7,431.1,89.6z
			 M394.6,89.6c0-35.3-17.1-50-38.9-50s-38.9,14.7-38.9,50s17.1,50,38.9,50S394.6,124.9,394.6,89.6z"/>
		<path class="st2" d="M605.5,164.9h-33.7V56.4H571l-34.1,108.5h-25.8l-34-108.5h-0.8v108.5h-32.8V14.2H496l28.1,97.4h0.8L553,14.2
			h52.4v150.7H605.5z"/>
		<path class="st2" d="M659.8,129.9v35h-37v-35H659.8z"/>
	</g>
	<g class="st1">
		<path class="st2" d="M732.9,45.6c30.5,0,52.2,23.7,52.2,61s-21.6,61-52.2,61c-17.7,0-34.3-9.1-40.3-23.3h-0.5v20.6h-13.9V3.9h14.6
			v64.4h0.5C699.6,54.3,715.7,45.6,732.9,45.6L732.9,45.6z M770.1,106.6c0-30.3-15.8-48.6-39.5-48.6c-22.3,0-38.7,18.3-38.7,48.6
			s16.4,48.6,38.7,48.6C754.3,155.2,770.1,136.9,770.1,106.6z"/>
		<path class="st2" d="M900.1,132.5c-5.7,17.1-20.4,35.1-51.2,35.1c-30.7,0-52.3-23.7-52.3-61.2c0-37.1,21.6-60.8,52.3-60.8
			c30.8,0,53.6,23.7,52.3,64.5h-89.6c0.7,26.8,15.5,45.1,37.3,45.1c21.9,0,32.5-13.1,36.4-24.8L900.1,132.5z M848.9,58
			c-21.8,0-35.5,18.1-37,40H886C884.4,76.1,870.7,58,848.9,58L848.9,58z"/>
		<path class="st2" d="M930.3,70.5h0.5c6.2-16,20.9-24.9,38.8-24.9c3.4,0,7.4,0.4,9.4,0.9v14.1c-1.7-0.2-6.5-0.7-10.3-0.7
			c-21.4,0-37.6,14.6-37.6,45.7v59.2h-14.6V48.3h13.9v22.2H930.3z"/>
		<path class="st2" d="M1005.5,3.9v161h-14.6V3.9H1005.5z"/>
		<path class="st2" d="M1040.4,3.9v18h-15.8v-18C1024.6,3.9,1040.4,3.9,1040.4,3.9z M1039.8,48.3v116.6h-14.6V48.3H1039.8z"/>
		<path class="st2" d="M1073.4,66.1c5.7-10.9,19.8-20.4,37.7-20.4c24,0,41.4,14.1,41.4,41v78.2h-14.6V92.7
			c0-23.8-8.7-34.7-29.4-34.7c-17.5,0-34.8,11.4-34.8,41.3v65.5H1059V48.3h13.9v17.8H1073.4z"/>
	</g>
</g>
<g id="Ebene_2">
	<g>
		<path class="st2" d="M42.5,40.6c13.1,0,22.4,5,27.7,13.1H71V9h27.7v126.1H72.1v-12.2h-0.7c-5.9,10.4-16.6,14.4-28.2,14.4
			c-23,0-39.9-18.4-39.9-48.3C3.3,59.1,20.2,40.6,42.5,40.6L42.5,40.6z M72.4,89.1c0-18.8-8.1-27.6-20.4-27.6
			c-12.5,0-20.5,8.9-20.5,27.6c0,18.7,8,27.6,20.5,27.6C64.2,116.6,72.4,107.7,72.4,89.1z"/>
		<path class="st2" d="M151.2,106.7l-17.8,28.5h-30.7L134,88.6l-29-45.8h30.6l15.6,26.6l15.8-26.6h30l-29,45.3l31.4,47.1h-31.4
			L151.2,106.7z"/>
		<path class="st2" d="M260.5,137.3c-13.1,0-22.2-4.6-27.7-13.1h-0.7v43h-27.7V42.8h26.5V55h0.7c6-10.7,16.6-14.4,28.2-14.4
			c23,0,39.9,18.4,39.9,48.3C299.8,118.8,282.8,137.3,260.5,137.3L260.5,137.3z M230.7,89c0,18.8,8.1,27.6,20.4,27.6
			c12.5,0,20.5-8.9,20.5-27.6c0-18.7-8-27.6-20.5-27.6C238.8,61.4,230.7,70.3,230.7,89z"/>
	</g>
	<g>
		<path class="st2" d="M359.4,36.7c25.2,0,43.1,19.5,43.1,50.3c0,30.8-17.9,50.3-43.1,50.3c-14.6,0-28.3-7.5-33.3-19.2h-0.4v17
			h-11.5V2.2h12.1v53.2h0.4C331.8,43.8,345.1,36.7,359.4,36.7L359.4,36.7z M390,87c0-25-13-40.1-32.6-40.1
			C339,46.9,325.5,62,325.5,87s13.5,40.1,31.9,40.1C377,127.1,390,112,390,87z"/>
		<path class="st2" d="M497.4,108.4c-4.7,14.1-16.8,29-42.3,29c-25.4,0-43.2-19.5-43.2-50.5c0-30.7,17.8-50.2,43.2-50.2
			c25.4,0,44.3,19.6,43.2,53.3h-74c0.6,22.1,12.8,37.2,30.8,37.2c18.1,0,26.8-10.8,30.1-20.5L497.4,108.4z M455.1,46.9
			c-18,0-29.3,15-30.6,33.1h61.2C484.4,61.9,473.1,46.9,455.1,46.9L455.1,46.9z"/>
		<path class="st2" d="M522.3,57.2h0.4c5.1-13.2,17.2-20.6,32-20.6c2.8,0,6.1,0.4,7.8,0.8v11.7c-1.4-0.2-5.4-0.6-8.5-0.6
			c-17.6,0-31.1,12.1-31.1,37.7v48.9h-12.1V38.9h11.5V57.2z"/>
		<path class="st2" d="M584.4,2.2v132.9h-12.1V2.2H584.4z"/>
		<path class="st2" d="M613.2,2.2v14.9h-13.1V2.2H613.2z M612.7,38.9v96.3h-12.1V38.9H612.7z"/>
		<path class="st2" d="M640.4,53.5c4.7-9,16.4-16.9,31.1-16.9c19.8,0,34.2,11.6,34.2,33.9v64.6h-12.1V75.6
			c0-19.7-7.2-28.6-24.3-28.6c-14.5,0-28.7,9.4-28.7,34.1v54.1h-12.1V38.9H640v14.7H640.4z"/>
	</g>
</g>
</svg>
