<?xml version="1.0" encoding="utf-8"?>
<!-- Generator: Adobe Illustrator 26.0.2, SVG Export Plug-In . SVG Version: 6.00 Build 0)  -->
<svg version="1.1" id="Ebene_1" xmlns="http://www.w3.org/2000/svg" xmlns:xlink="http://www.w3.org/1999/xlink" x="0px" y="0px"
	 viewBox="0 0 1154 169" style="enable-background:new 0 0 1154 169;" xml:space="preserve">
<style type="text/css">
	.st0{fill:#FFFFFF;}
</style>
<g>
	<path class="st0" d="M134.2,109.4c0,39.8-28.5,58.9-66.1,58.9c-37.5,0-66.1-19-66.1-58.9V14.2h35.9V106c0,23.2,10.7,33.3,30.2,33.3
		c19.5,0,30.2-10.2,30.2-33.3V14.2h35.9V109.4z"/>
	<path class="st0" d="M228,44.1v120.8h-35.9V44.1h-47.8V14.2h131.5v29.9H228z"/>
	<path class="st0" d="M431.1,89.6c0,49.9-31.4,78.7-75.4,78.7s-75.4-28.8-75.4-78.7c0-49.9,31.4-78.7,75.4-78.7
		S431.1,39.7,431.1,89.6z M394.6,89.6c0-35.3-17.1-50-38.9-50s-38.9,14.7-38.9,50c0,35.3,17.1,50,38.9,50S394.6,124.9,394.6,89.6z"
		/>
	<path class="st0" d="M605.5,164.9h-33.7V56.4H571l-34.1,108.5h-25.8L477.1,56.4h-0.8v108.5h-32.8V14.2H496l28.1,97.4h0.8l28.1-97.4
		h52.4V164.9z"/>
	<path class="st0" d="M659.8,129.9v35h-37v-35H659.8z"/>
</g>
<g>
	<path class="st0" d="M732.9,45.6c30.5,0,52.2,23.7,52.2,61c0,37.3-21.6,61-52.2,61c-17.7,0-34.3-9.1-40.3-23.3h-0.5v20.6h-13.9V3.9
		h14.6v64.4h0.5C699.6,54.3,715.7,45.6,732.9,45.6L732.9,45.6z M770.1,106.6c0-30.3-15.8-48.6-39.5-48.6
		c-22.3,0-38.7,18.3-38.7,48.6c0,30.3,16.4,48.6,38.7,48.6C754.3,155.2,770.1,136.9,770.1,106.6z"/>
	<path class="st0" d="M900.1,132.5c-5.7,17.1-20.4,35.1-51.2,35.1c-30.7,0-52.3-23.7-52.3-61.2c0-37.1,21.6-60.8,52.3-60.8
		c30.8,0,53.6,23.7,52.3,64.5h-89.6c0.7,26.8,15.5,45.1,37.3,45.1c21.9,0,32.5-13.1,36.4-24.8L900.1,132.5z M848.9,58
		c-21.8,0-35.5,18.1-37,40H886C884.4,76.1,870.7,58,848.9,58L848.9,58z"/>
	<path class="st0" d="M930.3,70.5h0.5c6.2-16,20.9-24.9,38.8-24.9c3.4,0,7.4,0.4,9.4,0.9v14.1c-1.7-0.2-6.5-0.7-10.3-0.7
		c-21.4,0-37.6,14.6-37.6,45.7v59.2h-14.6V48.3h13.9V70.5z"/>
	<path class="st0" d="M1005.5,3.9v161h-14.6V3.9H1005.5z"/>
	<path class="st0" d="M1040.4,3.9v18h-15.8v-18H1040.4z M1039.8,48.3v116.6h-14.6V48.3H1039.8z"/>
	<path class="st0" d="M1073.4,66.1c5.7-10.9,19.8-20.4,37.7-20.4c24,0,41.4,14.1,41.4,41v78.2h-14.6V92.7c0-23.8-8.7-34.7-29.4-34.7
		c-17.5,0-34.8,11.4-34.8,41.3v65.5H1059V48.3h13.9v17.8H1073.4z"/>
</g>
</svg>
