<?xml version="1.0" encoding="utf-8"?>
<!-- Generator: Adobe Illustrator 25.0.1, SVG Export Plug-In . SVG Version: 6.00 Build 0)  -->
<svg version="1.1" xmlns="http://www.w3.org/2000/svg" xmlns:xlink="http://www.w3.org/1999/xlink" x="0px" y="0px"
	 viewBox="0 0 1113.1 860.7" style="enable-background:new 0 0 1113.1 860.7;" xml:space="preserve">
<style type="text/css">
	.st0{fill:none;stroke:#000000;stroke-miterlimit:10;}
	.st1{fill:none;}
	.st2{font-family:'Roboto-Regular';}
	.st3{font-size:18px;}
	.st4{font-family:'Roboto-Bold';}
	.st5{fill:#FF00F3;}
</style>
<g id="znni-pass-trans-3gl-black">
	<g id="Ebene_2">
		
			<image style="overflow:visible;" width="1000" height="680" xlink:href="../../../../../../../../Dropbox/hct/heo2019/online/web/c4d/loage/layer_structure_znni_pass_trans_3gl_black_01.png"  transform="matrix(1 0 0 1 41.4215 59.366)">
		</image>
	</g>
	<polyline class="st0" points="31.9,457.6 6.9,457.6 6.9,609.6 51.9,609.6 	"/>
	<polyline class="st0" points="1065.4,362.6 1092.9,362.6 1092.9,823.6 1001.9,823.6 	"/>
	<polyline class="st0" points="1065.4,280.6 1092.9,280.6 1092.9,94.6 1001.9,94.6 	"/>
	<polyline class="st0" points="1066.6,324.6 1106.9,324.6 1106.9,60.6 1002.3,60.6 	"/>
	<polyline class="st0" points="1065.5,415.6 1079.9,415.6 1079.9,793.6 1002.9,793.6 	"/>
	<polyline class="st0" points="1065.5,240.6 1079.9,240.6 1079.9,129.6 1002.9,129.6 	"/>
	<circle cx="32.9" cy="458.6" r="4.5"/>
	<circle cx="1061.9" cy="415.6" r="4.5"/>
	<circle cx="1061.9" cy="363.6" r="4.5"/>
	<circle cx="1061.9" cy="324.7" r="4.5"/>
	<circle cx="1061.9" cy="281.1" r="4.5"/>
	<circle cx="1061.9" cy="240.8" r="4.5"/>
	<rect x="800.9" y="54.8" class="st1" width="172.6" height="25"/>
	<text transform="matrix(1 0 0 1 813.2423 68.2725)" class="st2 st3">3. Gleitlack TC 1000</text>
	<rect x="800.9" y="88.7" class="st1" width="172.6" height="25"/>
	<text transform="matrix(1 0 0 1 813.2423 102.194)" class="st2 st3">2. Gleitlack TC 1000</text>
	<rect x="800.9" y="122.6" class="st1" width="172.6" height="15"/>
	<text transform="matrix(1 0 0 1 813.2433 136.1394)" class="st2 st3">1. Gleitlack TC 1000</text>
	<rect x="775.9" y="784.4" class="st1" width="197.5" height="14.5"/>
	<text transform="matrix(1 0 0 1 800.5421 797.8753)" class="st2 st3">Passivierung  8-15µm</text>
	<rect x="578.4" y="753.4" class="st1" width="392.1" height="16.2"/>
	<text transform="matrix(1 0 0 1 633.5822 766.93)" class="st4 st3">Korrosionsschutz: galvanisch Zink-Nickel</text>
	<rect x="578.4" y="23.8" class="st1" width="392.1" height="16.2"/>
	<text transform="matrix(1 0 0 1 790.3966 37.3129)" class="st4 st3">Deckschicht: Gleitlack</text>
	<rect x="67.5" y="588.7" class="st1" width="252.4" height="40.6"/>
	<text transform="matrix(1 0 0 1 67.4605 602.2152)"><tspan x="0" y="0" class="st2 st3">Substrat</tspan><tspan x="0" y="21.6" class="st2 st3">Oberfläche entfettet</tspan></text>
	<rect x="754" y="816.3" class="st1" width="219.5" height="15.4"/>
	<text transform="matrix(1 0 0 1 754.3644 829.8088)" class="st2 st3">Zink-Nickel-Schicht 8-15µm</text>
	<rect x="820.7" y="711.3" class="st5" width="45.2" height="42.6"/>
	<rect x="57.2" y="513.1" class="st5" width="45.2" height="76.4"/>
</g>
<g id="Ebene_3">
</g>
</svg>
